<?xml version="1.0" encoding="UTF-8"?>
<svg id="Capa_1" xmlns="http://www.w3.org/2000/svg" viewBox="0 0 300.5 300.5">
  <defs>
    <style>
      .cls-1 {
        fill: #fff;
      }

      .cls-2 {
        fill: #0e222a;
        stroke: #000;
        stroke-miterlimit: 10;
        stroke-width: .5px;
      }
    </style>
  </defs>
  <rect class="cls-2" x=".25" y=".25" width="300" height="300"/>
  <g>
    <path class="cls-1" d="M138.85,93.9c14.6,23.67,28.93,47.51,43.27,71.34,13.87,23.06,27.68,46.17,41.31,69.38h38.09c-3.22-5.2-6.44-10.41-9.66-15.61-14.6-23.67-28.93-47.51-43.27-71.34-14.33-23.83-28.61-47.71-42.68-71.7-4.16-6.99-8.24-14.03-12.24-21.11-1.38-2.27-2.65-4.61-3.85-6.99-4.71,7.77-9.43,15.54-14.2,23.27-1.78,2.94-3.62,5.84-5.44,8.75,2.89,4.67,5.77,9.33,8.66,14Z"/>
    <path class="cls-1" d="M118.13,102.97c-9.37,15.81-18.79,31.58-28.25,47.34-2.32,3.87-4.66,7.72-6.98,11.59-3.83,6.4-7.66,12.8-11.5,19.2-10.73,17.88-21.53,35.73-32.41,53.52h40.84c19.7-32.1,39.4-64.21,59.1-96.31-6.93-11.78-13.86-23.56-20.79-35.34Z"/>
    <path class="cls-1" d="M106.01,234.62h92.85c-7.01-11.67-14.01-23.35-21.02-35.02h-49.94c-7.3,11.67-14.59,23.35-21.89,35.02Z"/>
  </g>
</svg>